<svg xmlns="http://www.w3.org/2000/svg" viewBox="0 0 48 48" fill="none" aria-hidden="true"><defs><linearGradient id="pg" x1="0" y1="0" x2="1" y2="1"><stop offset="0" stop-color="#E3C990"/><stop offset=".55" stop-color="#C9A96A"/><stop offset="1" stop-color="#9C7B3E"/></linearGradient></defs><circle cx="24" cy="24" r="23" stroke="url(#pg)" stroke-width="1.4"/><path d="M14 33c2.5-9 8-14 20-15-3 3.5-7 5-9.5 5.5 2 0 5-.5 7.5-2-2 3.5-5.5 5-8.5 5.2 1.5.3 4 .2 6-.8-2.5 3.6-6.3 4.6-9 4.2 1.2.6 2.7.9 4 .8-3 2.6-7 2.8-10.5 2.1z" fill="url(#pg)"/><path d="M14 33l-1.5 3.2" stroke="url(#pg)" stroke-width="1.6" stroke-linecap="round"/></svg>